<?xml version="1.0" encoding="utf-8"?>
<!-- Generator: Adobe Illustrator 21.0.0, SVG Export Plug-In . SVG Version: 6.00 Build 0)  -->
<svg version="1.1" xmlns="http://www.w3.org/2000/svg" xmlns:xlink="http://www.w3.org/1999/xlink" x="0px" y="0px"
	 viewBox="0 0 1056.7 185.3" style="enable-background:new 0 0 1056.7 185.3;" xml:space="preserve">
<style type="text/css">
	.st0{display:none;}
	.st1{display:inline;}
	.st2{display:inline;fill:#C11111;}
	.st3{display:inline;stroke:#756767;stroke-miterlimit:10;}
	.st4{fill:#FFFFFF;}
</style>
<g id="Layer_2_copy" class="st0">
	<g>
		<path class="st1" d="M847.5,111.8l35-46.9c2.9-3.9,5.8-5.8,8.8-5.8c3,0,5.9,2,8.8,5.9l34.1,46.8h-20L891,79.7l-23.3,32.1H847.5z"
			/>
	</g>
	<g>
		<path d="M822,63.7l-23.3,32.1l-23.2-32.1h-20l34.1,46.8c1,1.3,1.9,2.4,2.9,3.3c-0.5-2.5-3.1-4.3-4.9-6.1c1.8,1.8,4.4,3.6,4.9,6.1
			c1.9,1.7,3.9,2.6,5.9,2.6c3,0,5.9-1.9,8.8-5.8l35-46.9H822z"/>
	</g>
	<g>
		<path class="st1" d="M787,109.8l-1.4,1.9h3.7C788.6,111.1,787.8,110.5,787,109.8z"/>
		<path class="st1" d="M787.8,108.7l-0.8,1.1c0.8,0.7,1.6,1.3,2.3,1.9h1.5C789.9,110.7,788.8,109.7,787.8,108.7z"/>
		<path class="st1" d="M838.1,65c-2.9-3.9-5.8-5.9-8.8-5.9s-5.9,1.9-8.8,5.8l-32.7,43.8c1,0.9,2.1,1.9,2.9,3.1h15L829,79.7
			l23.2,32.1h20L838.1,65z"/>
	</g>
	<path d="M797.6,97c-5.3,0-9.6,4.3-9.6,9.6c0,0.9,0.1,1.8,0.4,2.7c1.5,1.4,3,2.9,3.2,4.8c1.6,1.3,3.7,2.1,6,2.1
		c5.3,0,9.6-4.3,9.6-9.6S802.9,97,797.6,97z"/>
	<circle cx="860.1" cy="106.8" r="9.6"/>
	<circle cx="922.3" cy="106.6" r="9.6"/>
	<circle cx="768.1" cy="68.7" r="8.2"/>
	<polygon points="937.5,116.4 917.5,116.4 914.2,111.8 934.2,111.8 	"/>
	<polygon points="775.5,63.7 755.5,63.7 752.2,59.1 772.2,59.1 	"/>
	<path class="st2" d="M723.2,64.6l38.5,52.7c0,0,7.2,10.3,15.5,0L800.6,86l20.3,28.1l2.5,3.8c0,0,6,8.9,15.3,0L862,85.2l26.5,36.7
		h20l-37.5-51.4c0,0-7.7-13-17.6-0.1s-22.3,30.1-22.3,30.1L807,68.2c0,0-6-8-13.6,0L769,100.7l-25.9-36.1H723.2z"/>
</g>
<g id="MASTER" class="st0">
	<path class="st3" d="M450.8,50.6h-20l39,53.3c0,0,6.7,8.6,14.1,0.4L508.2,72l21.7,30.3c0,0,8,11.7,17.8-0.3l21.9-30.9l26.5,36.7h20
		l-39-53.4c0,0-6.8-8.6-15.1,0.7s-23.3,31.3-23.3,31.3l-23.2-31.1c0,0-4.2-6.7-10.4-4.2c0,0-2.8,0.2-9.9,10.7l-18.6,24.8L450.8,50.6
		z"/>
	<path class="st3" d="M496.5,66.3"/>
	<g id="Layer_5" class="st1">
	</g>
</g>
<g id="Layer_2" class="st0">
	<g class="st1">
		<path d="M847.5,111.8l35-46.9c2.9-3.9,5.8-5.8,8.8-5.8c3,0,5.9,2,8.8,5.9l34.1,46.8h-20L891,79.7l-23.3,32.1H847.5z"/>
	</g>
	<g class="st1">
		<path d="M821,63.7l-23.3,32.1l-23.2-32.1h-20l34.1,46.8c1,1.3,1.9,2.4,2.9,3.3c-0.5-2.5-3.1-4.3-4.9-6.1c1.8,1.8,4.4,3.6,4.9,6.1
			c1.9,1.7,3.9,2.6,5.9,2.6c3,0,5.9-1.9,8.8-5.8l35-46.9H821z"/>
	</g>
	<g class="st1">
		<path d="M787,109.8l-1.4,1.9h3.7C788.6,111.1,787.8,110.5,787,109.8z"/>
		<path d="M787.8,108.7l-0.8,1.1c0.8,0.7,1.6,1.3,2.3,1.9h1.5C789.9,110.7,788.8,109.7,787.8,108.7z"/>
		<path d="M838.1,65c-2.9-3.9-5.8-5.9-8.8-5.9s-5.9,1.9-8.8,5.8l-32.7,43.8c1,0.9,2.1,1.9,2.9,3.1h15L829,79.7l23.2,32.1h20
			L838.1,65z"/>
	</g>
	<path class="st1" d="M791.6,114.1c-0.2-1.9-1.7-3.4-3.2-4.8C789,111.2,790.1,112.9,791.6,114.1z"/>
	<path class="st1" d="M797.6,97c-5.3,0-9.6,4.3-9.6,9.6c0,0.9,0.1,1.8,0.4,2.7c1.5,1.4,3,2.9,3.2,4.8c1.6,1.3,3.7,2.1,6,2.1
		c5.3,0,9.6-4.3,9.6-9.6S802.9,97,797.6,97z"/>
	<circle class="st1" cx="860.1" cy="106.8" r="9.6"/>
	<circle cx="922.3" cy="106.6" r="9.6"/>
	<circle cx="768.1" cy="68.7" r="8.2"/>
	<polygon class="st1" points="937.5,116.4 917.5,116.4 914.2,111.8 934.2,111.8 	"/>
</g>
<g id="Layer_1" class="st0">
	<g class="st1">
		<path d="M762.5-47.8C762.5-47.8,762.5-47.8,762.5-47.8c-2.5-2.7-6.1-4.4-10.1-4.4c-4,0-7.6,1.7-10.1,4.4L762.5-47.8L762.5-47.8z"
			/>
	</g>
	<g class="st1">
		<path d="M828.8-48.8L794.1-1.7c-2.9,3.9-5.8,5.9-8.7,5.9c-3,0-5.9-1.9-8.8-5.9l-34.4-46.6l20-0.1l23.4,32l23.1-32.3L828.8-48.8z"
			/>
	</g>
	<g class="st1">
		<path d="M762.6-47.8L727.5-1c-2.9,3.9-5.8,5.8-8.8,5.8c-3,0-5.9-2-8.8-5.9L675.9-48l20,0l23.1,32.1l23.4-32.1L762.6-47.8z"/>
	</g>
	<polygon class="st1" points="695.9,-47.9 675.9,-47.9 672.6,-52.5 692.6,-52.5 	"/>
</g>
<g id="Layer_6">
	<path class="st4" d="M65.1,3H2.7l121.7,166.3c0,0,21,27,44.1,1.2L244.1,70l67.8,94.6c0,0,24.9,36.6,55.4-1l68.2-96.3l82.7,114.4
		h62.4L459.2,15.2c0,0-21.2-26.9-47,2.1S339.4,115,339.4,115l-72.5-97c0,0-13.1-20.9-32.6-13.2c0,0-8.7,0.7-30.8,33.3l-57.9,77.3
		L65.1,3z"/>
	<g>
		<path class="st4" d="M652.9,181.8h-10.4l-9.9-35c-0.4-1.5-1-3.7-1.6-6.6c-0.6-2.9-1-4.9-1.2-6c-0.3,1.7-0.7,3.9-1.3,6.7
			s-1.1,4.8-1.5,6.1l-9.7,34.8h-10.4l-7.6-29.4l-7.7-29.3h9.8l8.4,34.2c1.3,5.5,2.2,10.3,2.8,14.5c0.3-2.3,0.7-4.8,1.3-7.6
			c0.6-2.8,1.1-5.1,1.6-6.8l9.5-34.2h9.5l9.8,34.4c0.9,3.2,1.9,7.9,3,14.3c0.4-3.8,1.4-8.7,2.9-14.6l8.3-34.1h9.7L652.9,181.8z"/>
		<path class="st4" d="M709.6,181.8h-33.2v-58.6h33.2v8.1h-23.6v16h22.1v8h-22.1v18.4h23.6V181.8z"/>
		<path class="st4" d="M722.3,123.2h17.4c8.1,0,13.9,1.2,17.5,3.5c3.6,2.4,5.4,6.1,5.4,11.1c0,3.4-0.9,6.3-2.6,8.5
			c-1.8,2.3-4.3,3.7-7.6,4.3v0.4c4.1,0.8,7.1,2.3,9.1,4.6c1.9,2.3,2.9,5.4,2.9,9.3c0,5.3-1.8,9.4-5.5,12.4c-3.7,3-8.8,4.5-15.3,4.5
			h-21.2V123.2z M731.9,147.4h9.2c4,0,6.9-0.6,8.8-1.9c1.8-1.3,2.8-3.4,2.8-6.5c0-2.8-1-4.7-3-6c-2-1.2-5.2-1.8-9.5-1.8h-8.3V147.4z
			 M731.9,155.2v18.6h10.2c4,0,7-0.8,9.1-2.3c2-1.5,3.1-4,3.1-7.3c0-3-1-5.3-3.1-6.8c-2.1-1.5-5.3-2.2-9.5-2.2H731.9z"/>
		<path class="st4" d="M823.2,181.8l-17-49h-0.3c0.5,7.3,0.7,14.1,0.7,20.5v28.5h-8.7v-58.6h13.5l16.3,46.6h0.2l16.8-46.6h13.6v58.6
			H849v-29c0-2.9,0.1-6.7,0.2-11.4c0.1-4.7,0.3-7.5,0.4-8.5h-0.3l-17.6,48.9H823.2z"/>
		<path class="st4" d="M906.8,181.8h-33.2v-58.6h33.2v8.1h-23.6v16h22.1v8h-22.1v18.4h23.6V181.8z"/>
		<path class="st4" d="M967.2,151.9c0,9.7-2.7,17.1-8.1,22.2c-5.4,5.1-13.1,7.7-23.2,7.7h-16.4v-58.6h18.1c9.3,0,16.6,2.5,21.8,7.5
			C964.6,135.7,967.2,142.8,967.2,151.9z M957,152.2c0-14-6.6-21.1-19.7-21.1h-8.3v42.5h6.8C950,173.7,957,166.6,957,152.2z"/>
		<path class="st4" d="M979.7,181.8v-58.6h9.6v58.6H979.7z"/>
		<path class="st4" d="M1041.2,181.8l-5.9-16.3h-22.4l-5.7,16.3h-10.1l21.9-58.9h10.4l21.9,58.9H1041.2z M1032.8,157.3l-5.5-16
			c-0.4-1.1-1-2.8-1.7-5.1c-0.7-2.3-1.2-4-1.5-5.1c-0.7,3.3-1.8,6.9-3.2,10.8l-5.3,15.3H1032.8z"/>
	</g>
	<g>
		<path class="st4" d="M649.7,8.5h25.8l-27.9,85.3h-27.1L592.6,8.5h25.9l11.6,43.2c2.4,9.6,3.7,16.3,4,20.1
			c0.3-2.7,0.8-6.1,1.6-10.2c0.8-4.1,1.5-7.3,2.2-9.6L649.7,8.5z"/>
		<path class="st4" d="M684.7,93.8V8.5h23.2v85.3H684.7z"/>
		<path class="st4" d="M749.4,62.8v31h-23V8.5h27.9c23.2,0,34.8,8.4,34.8,25.2c0,9.9-4.8,17.5-14.5,22.9l24.8,37.2h-26.1l-18.1-31
			H749.4z M749.4,45.5h4.3c8,0,12.1-3.6,12.1-10.7c0-5.9-3.9-8.8-11.8-8.8h-4.5V45.5z"/>
		<path class="st4" d="M844.8,93.8h-23V27.4h-20.8V8.5h64.6v18.8h-20.8V93.8z"/>
		<path class="st4" d="M950.2,8.5v51.3c0,11.2-3.2,19.8-9.5,25.9c-6.3,6.1-15.4,9.2-27.3,9.2c-11.6,0-20.6-3-26.8-8.9
			c-6.2-5.9-9.4-14.5-9.4-25.7V8.5h23.2v50c0,6,1.1,10.4,3.4,13.1c2.3,2.7,5.6,4.1,10,4.1c4.7,0,8.1-1.4,10.2-4.1
			c2.1-2.7,3.2-7.1,3.2-13.3V8.5H950.2z"/>
		<path class="st4" d="M1023.9,67.9c0,5.3-1.3,10-4,14.1c-2.7,4.1-6.6,7.3-11.6,9.6c-5.1,2.3-11,3.4-17.8,3.4
			c-5.7,0-10.4-0.4-14.3-1.2c-3.8-0.8-7.9-2.2-12-4.2V69.1c4.4,2.3,9,4,13.7,5.3c4.7,1.3,9.1,1.9,13.1,1.9c3.4,0,5.9-0.6,7.5-1.8
			c1.6-1.2,2.4-2.7,2.4-4.6c0-1.2-0.3-2.2-1-3.1s-1.7-1.8-3.1-2.7c-1.4-0.9-5.2-2.7-11.3-5.5c-5.6-2.5-9.7-5-12.5-7.3
			c-2.8-2.4-4.8-5.1-6.2-8.2c-1.3-3.1-2-6.7-2-10.9c0-7.9,2.9-14,8.6-18.4c5.7-4.4,13.6-6.6,23.6-6.6c8.8,0,17.8,2,27,6.1l-7.1,17.8
			c-8-3.7-14.9-5.5-20.6-5.5c-3,0-5.2,0.5-6.5,1.6s-2,2.4-2,3.9c0,1.7,0.9,3.2,2.6,4.5c1.7,1.3,6.4,3.7,14.1,7.2
			c7.3,3.3,12.5,6.9,15.3,10.6C1022.5,57.4,1023.9,62.2,1023.9,67.9z"/>
	</g>
</g>
</svg>
