<?xml version="1.0" encoding="utf-8"?>
<!-- Generator: Adobe Illustrator 21.0.0, SVG Export Plug-In . SVG Version: 6.00 Build 0)  -->
<svg version="1.1" xmlns="http://www.w3.org/2000/svg" xmlns:xlink="http://www.w3.org/1999/xlink" x="0px" y="0px"
	 viewBox="0 0 1079.9 198" style="enable-background:new 0 0 1079.9 198;" xml:space="preserve">
<style type="text/css">
	.st0{display:none;}
	.st1{display:inline;}
	.st2{display:inline;fill:#C11111;}
	.st3{display:inline;stroke:#756767;stroke-miterlimit:10;}
	.st4{display:inline;fill:#083B4E;}
	.st5{display:inline;fill:none;}
	.st6{fill:#A80000;}
	.st7{font-family:'OpenSans-Bold';}
	.st8{font-size:82.1225px;}
	.st9{fill:#1B6882;}
	.st10{font-family:'OpenSans-Semibold';}
	.st11{font-family:'OpenSans-Extrabold';}
	.st12{font-size:119.4509px;}
	.st13{fill:#083B4E;}
</style>
<g id="Layer_2_copy" class="st0">
	<g>
		<path class="st1" d="M861.7,117l35-46.9c2.9-3.9,5.8-5.8,8.8-5.8c3,0,5.9,2,8.8,5.9l34.1,46.8h-20l-23.2-32.1L881.9,117H861.7z"/>
	</g>
	<g>
		<path d="M836.2,68.9L812.9,101l-23.2-32.1h-20l34.1,46.8c1,1.3,1.9,2.4,2.9,3.3c-0.5-2.5-3.1-4.3-4.9-6.1c1.8,1.8,4.4,3.6,4.9,6.1
			c1.9,1.7,3.9,2.6,5.9,2.6c3,0,5.9-1.9,8.8-5.8l35-46.9H836.2z"/>
	</g>
	<g>
		<path class="st1" d="M801.2,115.1l-1.4,1.9h3.7C802.8,116.4,802,115.8,801.2,115.1z"/>
		<path class="st1" d="M802,114l-0.8,1.1c0.8,0.7,1.6,1.3,2.3,1.9h1.5C804.1,115.9,803,114.9,802,114z"/>
		<path class="st1" d="M852.3,70.2c-2.9-3.9-5.8-5.9-8.8-5.9s-5.9,1.9-8.8,5.8L802,114c1,0.9,2.1,1.9,2.9,3.1h15l23.3-32.1
			l23.2,32.1h20L852.3,70.2z"/>
	</g>
	<path d="M811.8,102.3c-5.3,0-9.6,4.3-9.6,9.6c0,0.9,0.1,1.8,0.4,2.7c1.5,1.4,3,2.9,3.2,4.8c1.6,1.3,3.7,2.1,6,2.1
		c5.3,0,9.6-4.3,9.6-9.6S817.1,102.3,811.8,102.3z"/>
	<circle cx="874.3" cy="112" r="9.6"/>
	<circle cx="936.5" cy="111.8" r="9.6"/>
	<circle cx="782.3" cy="73.9" r="8.2"/>
	<polygon points="951.7,121.6 931.7,121.6 928.4,117 948.4,117 	"/>
	<polygon points="789.7,68.9 769.7,68.9 766.4,64.3 786.4,64.3 	"/>
	<path class="st2" d="M737.4,69.8l38.5,52.7c0,0,7.2,10.3,15.5,0l23.4-31.2l20.3,28.1l2.5,3.8c0,0,6,8.9,15.3,0l23.3-32.8l26.5,36.7
		h20l-37.5-51.4c0,0-7.7-13-17.6-0.1s-22.3,30.1-22.3,30.1l-24.2-32.3c0,0-6-8-13.6,0l-24.3,32.5l-25.9-36.1H737.4z"/>
</g>
<g id="MASTER" class="st0">
	<path class="st3" d="M465,55.8h-20l39,53.3c0,0,6.7,8.6,14.1,0.4l24.3-32.3l21.7,30.3c0,0,8,11.7,17.8-0.3l21.9-30.9l26.5,36.7h20
		l-39-53.4c0,0-6.8-8.6-15.1,0.7S553,91.7,553,91.7l-23.2-31.1c0,0-4.2-6.7-10.4-4.2c0,0-2.8,0.2-9.9,10.7l-18.6,24.8L465,55.8z"/>
	<path class="st3" d="M510.7,71.5"/>
	<g id="Layer_5" class="st1">
	</g>
</g>
<g id="Layer_2" class="st0">
	<g class="st1">
		<path d="M861.7,117l35-46.9c2.9-3.9,5.8-5.8,8.8-5.8c3,0,5.9,2,8.8,5.9l34.1,46.8h-20l-23.2-32.1L881.9,117H861.7z"/>
	</g>
	<g class="st1">
		<path d="M835.2,68.9L811.9,101l-23.2-32.1h-20l34.1,46.8c1,1.3,1.9,2.4,2.9,3.3c-0.5-2.5-3.1-4.3-4.9-6.1c1.8,1.8,4.4,3.6,4.9,6.1
			c1.9,1.7,3.9,2.6,5.9,2.6c3,0,5.9-1.9,8.8-5.8l35-46.9H835.2z"/>
	</g>
	<g class="st1">
		<path d="M801.2,115.1l-1.4,1.9h3.7C802.8,116.4,802,115.8,801.2,115.1z"/>
		<path d="M802,114l-0.8,1.1c0.8,0.7,1.6,1.3,2.3,1.9h1.5C804.1,115.9,803,114.9,802,114z"/>
		<path d="M852.3,70.2c-2.9-3.9-5.8-5.9-8.8-5.9s-5.9,1.9-8.8,5.8L802,114c1,0.9,2.1,1.9,2.9,3.1h15l23.3-32.1l23.2,32.1h20
			L852.3,70.2z"/>
	</g>
	<path class="st1" d="M805.8,119.3c-0.2-1.9-1.7-3.4-3.2-4.8C803.2,116.4,804.3,118.1,805.8,119.3z"/>
	<path class="st1" d="M811.8,102.3c-5.3,0-9.6,4.3-9.6,9.6c0,0.9,0.1,1.8,0.4,2.7c1.5,1.4,3,2.9,3.2,4.8c1.6,1.3,3.7,2.1,6,2.1
		c5.3,0,9.6-4.3,9.6-9.6S817.1,102.3,811.8,102.3z"/>
	<circle class="st1" cx="874.3" cy="112" r="9.6"/>
	<circle cx="936.5" cy="111.8" r="9.6"/>
	<circle cx="782.3" cy="73.9" r="8.2"/>
	<polygon class="st1" points="951.7,121.6 931.7,121.6 928.4,117 948.4,117 	"/>
</g>
<g id="Layer_1" class="st0">
	<g class="st1">
		<path d="M776.7-42.6C776.7-42.6,776.7-42.6,776.7-42.6c-2.5-2.7-6.1-4.4-10.1-4.4c-4,0-7.6,1.7-10.1,4.4L776.7-42.6L776.7-42.6z"
			/>
	</g>
	<g class="st1">
		<path d="M843-43.6L808.3,3.5c-2.9,3.9-5.8,5.9-8.7,5.9c-3,0-5.9-1.9-8.8-5.9l-34.4-46.6l20-0.1l23.4,32l23.1-32.3L843-43.6z"/>
	</g>
	<g class="st1">
		<path d="M776.8-42.6L741.7,4.2c-2.9,3.9-5.8,5.8-8.8,5.8c-3,0-5.9-2-8.8-5.9l-34.1-46.8l20,0l23.1,32.1l23.4-32.1L776.8-42.6z"/>
	</g>
	<polygon class="st1" points="710.1,-42.7 690.1,-42.7 686.8,-47.3 706.8,-47.3 	"/>
</g>
<g id="Layer_6" class="st0">
	<path class="st4" d="M79.3,8.3H16.9l121.7,166.3c0,0,21,27,44.1,1.2l75.7-100.6l67.8,94.6c0,0,24.9,36.6,55.4-1l68.2-96.3
		l82.7,114.4h62.4L473.4,20.5c0,0-21.2-26.9-47,2.1s-72.8,97.7-72.8,97.7l-72.5-97c0,0-13.1-20.9-32.6-13.2c0,0-8.7,0.7-30.8,33.3
		l-57.9,77.3L79.3,8.3z"/>
	<rect x="605.3" y="26.1" class="st5" width="534.6" height="307.9"/>
	<text transform="matrix(1 0 0 1 605.2637 88.4817)" class="st1"><tspan x="0" y="0" class="st6 st7 st8"> </tspan><tspan x="0" y="98.5" class="st9 st10 st8">WEB MEDIA</tspan></text>
	<rect x="606.8" y="8.3" class="st5" width="460.4" height="118.2"/>
	<text transform="matrix(1 0 0 1 606.8448 99.0525)" class="st4 st11 st12">VIRTUS</text>
</g>
<g id="Layer_6_copy">
	<g>
		<path class="st13" d="M79.3,8.3H16.9l121.7,166.3c0,0,21,27,44.1,1.2l75.7-100.6l67.8,94.6c0,0,24.9,36.6,55.4-1l68.2-96.3
			l82.7,114.4h62.4L473.4,20.5c0,0-21.2-26.9-47,2.1s-72.8,97.7-72.8,97.7l-72.5-97c0,0-13.1-20.9-32.6-13.2c0,0-8.7,0.7-30.8,33.3
			l-57.9,77.3L79.3,8.3z"/>
	</g>
	<g>
		<path class="st9" d="M667.1,187h-10.4l-9.9-35c-0.4-1.5-1-3.7-1.6-6.6c-0.6-2.9-1-4.9-1.2-6c-0.3,1.7-0.7,3.9-1.3,6.7
			s-1.1,4.8-1.5,6.1l-9.7,34.8H621l-7.6-29.4l-7.7-29.3h9.8l8.4,34.2c1.3,5.5,2.2,10.3,2.8,14.5c0.3-2.3,0.7-4.8,1.3-7.6
			c0.6-2.8,1.1-5.1,1.6-6.8l9.5-34.2h9.5l9.8,34.4c0.9,3.2,1.9,7.9,3,14.3c0.4-3.8,1.4-8.7,2.9-14.6l8.3-34.1h9.7L667.1,187z"/>
		<path class="st9" d="M723.8,187h-33.2v-58.6h33.2v8.1h-23.6v16h22.1v8h-22.1v18.4h23.6V187z"/>
		<path class="st9" d="M736.5,128.4h17.4c8.1,0,13.9,1.2,17.5,3.5c3.6,2.4,5.4,6.1,5.4,11.1c0,3.4-0.9,6.3-2.6,8.5
			c-1.8,2.3-4.3,3.7-7.6,4.3v0.4c4.1,0.8,7.1,2.3,9.1,4.6c1.9,2.3,2.9,5.4,2.9,9.3c0,5.3-1.8,9.4-5.5,12.4c-3.7,3-8.8,4.5-15.3,4.5
			h-21.2V128.4z M746.1,152.6h9.2c4,0,6.9-0.6,8.8-1.9c1.8-1.3,2.8-3.4,2.8-6.5c0-2.8-1-4.7-3-6c-2-1.2-5.2-1.8-9.5-1.8h-8.3V152.6z
			 M746.1,160.4V179h10.2c4,0,7-0.8,9.1-2.3c2-1.5,3.1-4,3.1-7.3c0-3-1-5.3-3.1-6.8c-2.1-1.5-5.3-2.2-9.5-2.2H746.1z"/>
		<path class="st9" d="M837.4,187l-17-49h-0.3c0.5,7.3,0.7,14.1,0.7,20.5V187h-8.7v-58.6h13.5l16.3,46.6h0.2l16.8-46.6h13.6V187
			h-9.2v-29c0-2.9,0.1-6.7,0.2-11.4c0.1-4.7,0.3-7.5,0.4-8.5h-0.3L845.9,187H837.4z"/>
		<path class="st9" d="M921,187h-33.2v-58.6H921v8.1h-23.6v16h22.1v8h-22.1v18.4H921V187z"/>
		<path class="st9" d="M981.4,157.2c0,9.7-2.7,17.1-8.1,22.2c-5.4,5.1-13.1,7.7-23.2,7.7h-16.4v-58.6h18.1c9.3,0,16.6,2.5,21.8,7.5
			C978.8,141,981.4,148,981.4,157.2z M971.2,157.5c0-14-6.6-21.1-19.7-21.1h-8.3V179h6.8C964.2,179,971.2,171.8,971.2,157.5z"/>
		<path class="st9" d="M993.9,187v-58.6h9.6V187H993.9z"/>
		<path class="st9" d="M1055.4,187l-5.9-16.3h-22.4l-5.7,16.3h-10.1l21.9-58.9h10.4l21.9,58.9H1055.4z M1047,162.5l-5.5-16
			c-0.4-1.1-1-2.8-1.7-5.1c-0.7-2.3-1.2-4-1.5-5.1c-0.7,3.3-1.8,6.9-3.2,10.8l-5.3,15.3H1047z"/>
	</g>
	<g>
		<path class="st13" d="M663.9,13.8h25.8l-27.9,85.3h-27.1l-27.8-85.3h25.9L644.3,57c2.4,9.6,3.7,16.3,4,20.1
			c0.3-2.7,0.8-6.1,1.6-10.2c0.8-4.1,1.5-7.3,2.2-9.6L663.9,13.8z"/>
		<path class="st13" d="M698.9,99.1V13.8h23.2v85.3H698.9z"/>
		<path class="st13" d="M763.6,68v31h-23V13.8h27.9c23.2,0,34.8,8.4,34.8,25.2c0,9.9-4.8,17.5-14.5,22.9l24.8,37.2h-26.1l-18.1-31
			H763.6z M763.6,50.7h4.3c8,0,12.1-3.6,12.1-10.7c0-5.9-3.9-8.8-11.8-8.8h-4.5V50.7z"/>
		<path class="st13" d="M859,99.1h-23V32.6h-20.8V13.8h64.6v18.8H859V99.1z"/>
		<path class="st13" d="M964.4,13.8v51.3c0,11.2-3.2,19.8-9.5,25.9c-6.3,6.1-15.4,9.2-27.3,9.2c-11.6,0-20.6-3-26.8-8.9
			c-6.2-5.9-9.4-14.5-9.4-25.7V13.8h23.2v50c0,6,1.1,10.4,3.4,13.1c2.3,2.7,5.6,4.1,10,4.1c4.7,0,8.1-1.4,10.2-4.1
			c2.1-2.7,3.2-7.1,3.2-13.3V13.8H964.4z"/>
		<path class="st13" d="M1038.1,73.2c0,5.3-1.3,10-4,14.1c-2.7,4.1-6.6,7.3-11.6,9.6c-5.1,2.3-11,3.4-17.8,3.4
			c-5.7,0-10.4-0.4-14.3-1.2c-3.8-0.8-7.9-2.2-12-4.2V74.3c4.4,2.3,9,4,13.7,5.3c4.7,1.3,9.1,1.9,13.1,1.9c3.4,0,5.9-0.6,7.5-1.8
			c1.6-1.2,2.4-2.7,2.4-4.6c0-1.2-0.3-2.2-1-3.1s-1.7-1.8-3.1-2.7c-1.4-0.9-5.2-2.7-11.3-5.5c-5.6-2.5-9.7-5-12.5-7.3
			c-2.8-2.4-4.8-5.1-6.2-8.2c-1.3-3.1-2-6.7-2-10.9c0-7.9,2.9-14,8.6-18.4c5.7-4.4,13.6-6.6,23.6-6.6c8.8,0,17.8,2,27,6.1l-7.1,17.8
			c-8-3.7-14.9-5.5-20.6-5.5c-3,0-5.2,0.5-6.5,1.6s-2,2.4-2,3.9c0,1.7,0.9,3.2,2.6,4.5c1.7,1.3,6.4,3.7,14.1,7.2
			c7.3,3.3,12.5,6.9,15.3,10.6C1036.7,62.6,1038.1,67.4,1038.1,73.2z"/>
	</g>
</g>
</svg>
